<?xml version="1.0" encoding="utf-8"?>
<!-- Generator: Adobe Illustrator 22.0.1, SVG Export Plug-In . SVG Version: 6.00 Build 0)  -->
<svg version="1.1" id="Capa_1" xmlns="http://www.w3.org/2000/svg" xmlns:xlink="http://www.w3.org/1999/xlink" x="0px" y="0px"
	 viewBox="0 0 324.2 324.2" style="enable-background:new 0 0 324.2 324.2;" xml:space="preserve">
<style type="text/css">
	.st0{fill:#FCD111;}
</style>
<g>
	<path class="st0" d="M306.6,167.2c6.6-6.6,6.6-17.2,0-23.8L167.9,4.8c-6.4-6.4-17.4-6.3-23.8,0l-15.8,15.8l-2.6-2.6
		c-3.8-3.8-9.9-3.8-13.6,0c-3.8,3.8-3.8,9.9,0,13.6l2.6,2.6l-14.6,14.6c-6.6,6.6-6.6,17.2,0,23.8l138.6,138.6
		c3.2,3.2,7.4,4.9,11.9,4.9s8.7-1.7,11.9-4.9l14.6-14.6l4.5,4.5l-40.8,40.8l-82.5-82.5l-30.7,30.7l-8-8c-4.9-4.9-11.4-7.6-18.4-7.6
		s-13.5,2.7-18.4,7.6c-5.9,5.9-8.5,14.2-7.2,22.4l-57.3,57.3c-3.6,3.6-5.6,8.5-5.6,13.6c0,5.2,2,10,5.6,13.6l29.5,29.5
		c3.6,3.6,8.5,5.6,13.6,5.6c5.2,0,10-2,13.6-5.6l57.3-57.3c1.4,0.2,2.7,0.3,4.1,0.3c6.9,0,13.4-2.7,18.3-7.5
		c10.1-10.1,10.1-26.6,0-36.8l-13.6-13.6l17-17l82.5,82.5l68-68L290.7,183L306.6,167.2z M145.8,245c-2.4,2.4-5.7,3.8-9.2,3.8
		c-1.4,0-2.8-0.2-4.2-0.7l-3.7-1.2l-62.6,62.6c-2.4,2.4-6.6,2.4-9.1,0L27.5,280c-1.2-1.2-1.9-2.8-1.9-4.5c0-1.7,0.7-3.3,1.9-4.5
		l62.6-62.6l-1.2-3.7c-1.5-4.7-0.3-9.9,3.1-13.3c2.5-2.5,5.8-3.8,9.3-3.8s6.8,1.4,9.3,3.9l35.2,35.2
		C150.9,231.5,150.9,239.9,145.8,245z M253.4,202.2c-1.5,1.5-4.1,1.5-5.6,0L109.1,63.5c-1.5-1.5-1.5-4.1,0-5.6l44.1-44.1
		c0.7-0.8,1.7-1.2,2.8-1.2s2.1,0.4,2.8,1.2l4.4,4.4c-4,15.2-6.7,33.7,1,40.8c13.9,12.9,39,12.9,39,12.9s4.5,25,15.3,36.1
		c10.7,11.1,39.6,11.1,39.6,11.1s-21.4,28.9-13.9,37.5c7.5,8.6,38.6-6.4,38.6-6.4l8.5-3.8l6.1,6.1c1.6,1.5,1.6,4.1,0,5.6
		L253.4,202.2z"/>
</g>
</svg>
