<?xml version="1.0" encoding="utf-8"?>
<!-- Generator: Adobe Illustrator 22.0.1, SVG Export Plug-In . SVG Version: 6.00 Build 0)  -->
<svg version="1.1" id="Capa_1" xmlns="http://www.w3.org/2000/svg" xmlns:xlink="http://www.w3.org/1999/xlink" x="0px" y="0px"
	 viewBox="0 0 512 512" style="enable-background:new 0 0 512 512;" xml:space="preserve">
<style type="text/css">
	.st0{fill:#FCD111;}
</style>
<g>
	<g>
		<path class="st0" d="M363.7,0H148.3C127.7,0,111,16.7,111,37.3v437.4c0,20.6,16.6,37.3,37.3,37.3h215.4
			c20.6,0,37.3-16.7,37.3-37.3V37.3C401,16.7,384.3,0,363.7,0z M202.8,22.7h106.3c2.7,0,4.9,4,4.9,9s-2.2,9-4.9,9H202.8
			c-2.7,0-4.9-4-4.9-9C198,26.7,200.1,22.7,202.8,22.7z M256,475.2c-13.1,0-23.8-10.7-23.8-23.8s10.7-23.8,23.8-23.8
			c13.1,0,23.8,10.6,23.8,23.8S269.1,475.2,256,475.2z M373.1,393.7H139V62.9h234.1L373.1,393.7L373.1,393.7z"/>
	</g>
</g>
</svg>
